<?xml version="1.0" standalone="no"?>
<!DOCTYPE svg PUBLIC "-//W3C//DTD SVG 20010904//EN"
 "http://www.w3.org/TR/2001/REC-SVG-20010904/DTD/svg10.dtd">
<svg version="1.0" xmlns="http://www.w3.org/2000/svg"
 width="256.000000pt" height="256.000000pt" viewBox="0 0 256.000000 256.000000"
 preserveAspectRatio="xMidYMid meet">

<g transform="translate(0.000000,256.000000) scale(0.100000,-0.100000)"
fill="#f20f90" stroke="none">
<path d="M1146 2548 c-44 -5 -104 -14 -134 -21 l-55 -12 -40 -120 c-22 -66
-42 -122 -44 -125 -2 -2 -56 22 -120 54 l-116 57 -53 -33 c-29 -18 -85 -59
-124 -92 l-72 -59 215 -110 215 -111 7 -119 c4 -65 4 -121 1 -124 -3 -3 -59
-2 -126 2 l-121 7 -108 216 -107 215 -60 -72 c-32 -40 -74 -97 -93 -127 l-35
-55 58 -116 c31 -63 56 -116 54 -118 -2 -1 -57 -20 -123 -42 l-120 -40 -12
-54 c-14 -63 -35 -240 -29 -246 2 -2 118 33 257 78 l252 82 205 -10 204 -10
81 -81 82 -82 -84 -84 -83 -83 -201 -10 -202 -9 -250 83 c-137 46 -253 83
-258 83 -10 0 1 -121 22 -225 l16 -80 117 -40 c64 -22 119 -43 123 -46 3 -4
-20 -58 -51 -121 l-57 -115 50 -74 c28 -41 71 -97 95 -124 l46 -50 108 216
107 216 121 6 c67 3 123 4 124 2 2 -2 1 -58 -3 -125 l-8 -121 -215 -108 -214
-107 53 -47 c62 -54 182 -137 198 -137 6 0 61 25 122 55 98 50 111 54 116 38
3 -10 21 -65 41 -123 l37 -105 49 -12 c66 -16 245 -38 252 -30 3 3 -31 117
-77 254 l-82 247 9 204 10 203 82 82 82 82 0 -538 0 -537 41 0 c82 0 256 32
358 66 440 146 758 503 857 964 25 118 26 371 1 490 -58 273 -180 495 -374
680 -222 213 -479 325 -810 355 l-73 7 0 -543 0 -544 -82 82 -82 82 -10 209
-9 208 81 244 c45 135 82 248 82 253 0 8 -5 8 -114 -5z m523 -352 c206 -87
403 -271 503 -471 63 -125 108 -309 108 -441 0 -363 -214 -719 -530 -883 -88
-46 -177 -81 -184 -73 -4 3 -6 432 -6 954 0 812 2 948 14 948 8 0 51 -15 95
-34z"/>
</g>
</svg>
