<?xml version="1.0"?>
<svg xmlns="http://www.w3.org/2000/svg" xmlns:xlink="http://www.w3.org/1999/xlink" xmlns:svgjs="http://svgjs.com/svgjs" version="1.1" width="512" height="512" x="0" y="0" viewBox="0 0 512.033 512.033" style="enable-background:new 0 0 512 512" xml:space="preserve" class=""><g><g xmlns="http://www.w3.org/2000/svg"><path d="m217.887 391.26c-5.46 0-11.057-.835-16.594-3.128-13.913-5.764-21.595-18.317-27.766-28.404-3.017-4.93-5.865-9.585-8.752-12.474-3.149-3.152-7.985-6.154-13.106-9.332-10.415-6.465-22.221-13.791-27.768-27.182-5.546-13.391-2.379-26.919.415-38.854 1.373-5.868 2.671-11.411 2.669-15.867-.002-4.082-1.279-9.389-2.633-15.006-2.769-11.497-6.214-25.806-.451-39.72 5.764-13.913 18.317-21.595 28.404-27.766 4.93-3.017 9.585-5.865 12.474-8.752 3.152-3.149 6.154-7.985 9.332-13.106 6.465-10.415 13.791-22.221 27.182-27.768s26.919-2.38 38.854.415c5.864 1.372 11.403 2.669 15.859 2.669h.008c4.082-.002 9.389-1.279 15.006-2.633 11.496-2.77 25.805-6.214 39.72-.451 13.913 5.764 21.595 18.317 27.766 28.404 3.017 4.93 5.865 9.585 8.752 12.474 3.149 3.152 7.985 6.154 13.106 9.332 10.415 6.465 22.221 13.791 27.768 27.182 5.546 13.391 2.379 26.919-.415 38.854-1.373 5.868-2.671 11.411-2.669 15.867.002 4.082 1.279 9.389 2.633 15.006 2.769 11.497 6.214 25.806.451 39.72-5.764 13.913-18.317 21.595-28.404 27.766-4.93 3.017-9.585 5.865-12.474 8.752-3.152 3.149-6.154 7.985-9.332 13.106-6.465 10.415-13.791 22.221-27.182 27.768-13.39 5.547-26.919 2.38-38.854-.415-5.864-1.372-11.403-2.669-15.859-2.669-.003 0-.005 0-.008 0-4.082.002-9.389 1.279-15.006 2.633-6.922 1.667-14.865 3.579-23.126 3.579zm-.42-240.397c-1.809 0-3.404.221-4.694.755-4.471 1.852-8.894 8.979-13.172 15.871-3.938 6.345-8.009 12.905-13.616 18.508-5.403 5.399-11.818 9.324-18.021 13.12-7.362 4.504-14.316 8.759-16.345 13.656s-.12 12.823 1.9 21.215c1.703 7.069 3.464 14.38 3.467 22.018.003 7.928-1.757 15.446-3.459 22.717-1.849 7.898-3.76 16.065-1.908 20.538 1.852 4.471 8.979 8.894 15.871 13.172 6.345 3.938 12.905 8.009 18.508 13.616 5.399 5.403 9.324 11.818 13.12 18.021 4.504 7.362 8.759 14.316 13.656 16.345 4.9 2.029 12.825.12 21.215-1.9 7.069-1.703 14.38-3.464 22.018-3.467h.02c7.921 0 15.433 1.758 22.697 3.459 7.897 1.849 16.064 3.762 20.538 1.908 4.471-1.852 8.894-8.979 13.172-15.871 3.938-6.345 8.009-12.905 13.616-18.508 5.403-5.399 11.818-9.324 18.021-13.12 7.362-4.504 14.316-8.759 16.345-13.656s.12-12.823-1.9-21.215c-1.703-7.069-3.464-14.38-3.467-22.018-.003-7.928 1.757-15.446 3.459-22.717 1.849-7.898 3.76-16.065 1.908-20.538-1.852-4.471-8.979-8.894-15.871-13.172-6.345-3.938-12.905-8.009-18.508-13.616-5.399-5.403-9.324-11.818-13.12-18.021-4.504-7.362-8.759-14.316-13.656-16.345-4.9-2.029-12.825-.119-21.215 1.9-7.069 1.703-14.38 3.464-22.018 3.467-.007 0-.014 0-.02 0-7.921 0-15.433-1.758-22.697-3.459-5.621-1.315-11.379-2.663-15.844-2.663z" fill="#000000" data-original="#000000" style="" class=""/><path d="m256.017 325.048c-38.063 0-69.031-30.968-69.031-69.031s30.968-69.031 69.031-69.031 69.031 30.968 69.031 69.031-30.968 69.031-69.031 69.031zm0-108.063c-21.521 0-39.031 17.51-39.031 39.031s17.51 39.031 39.031 39.031 39.031-17.51 39.031-39.031-17.51-39.031-39.031-39.031z" fill="#000000" data-original="#000000" style="" class=""/><path d="m169.508 0c-26.049 0-47.166 21.117-47.166 47.166s21.117 47.166 47.166 47.166 47.166-21.117 47.166-47.166-21.117-47.166-47.166-47.166zm0 64.332c-9.466 0-17.166-7.7-17.166-17.166s7.7-17.166 17.166-17.166 17.166 7.7 17.166 17.166-7.7 17.166-17.166 17.166z" fill="#000000" data-original="#000000" style="" class=""/><path d="m342.525 0c-26.049 0-47.166 21.117-47.166 47.166s21.117 47.166 47.166 47.166 47.166-21.117 47.166-47.166c.001-26.049-21.116-47.166-47.166-47.166zm0 64.332c-9.466 0-17.166-7.7-17.166-17.166s7.701-17.166 17.166-17.166 17.166 7.7 17.166 17.166-7.7 17.166-17.166 17.166z" fill="#000000" data-original="#000000" style="" class=""/><path d="m464.867 122.342c-26.049 0-47.166 21.117-47.166 47.166s21.117 47.166 47.166 47.166 47.166-21.117 47.166-47.166-21.117-47.166-47.166-47.166zm0 64.332c-9.466 0-17.166-7.7-17.166-17.166s7.7-17.166 17.166-17.166 17.166 7.7 17.166 17.166-7.7 17.166-17.166 17.166z" fill="#000000" data-original="#000000" style="" class=""/><path d="m464.867 295.359c-26.049 0-47.166 21.117-47.166 47.166s21.117 47.166 47.166 47.166 47.166-21.117 47.166-47.166-21.117-47.166-47.166-47.166zm0 64.332c-9.466 0-17.166-7.7-17.166-17.166s7.7-17.166 17.166-17.166 17.166 7.7 17.166 17.166-7.7 17.166-17.166 17.166z" fill="#000000" data-original="#000000" style="" class=""/><path d="m342.525 417.701c-26.049 0-47.166 21.117-47.166 47.166s21.117 47.166 47.166 47.166 47.166-21.117 47.166-47.166c.001-26.049-21.116-47.166-47.166-47.166zm0 64.332c-9.466 0-17.166-7.7-17.166-17.166s7.7-17.166 17.166-17.166 17.166 7.7 17.166 17.166-7.7 17.166-17.166 17.166z" fill="#000000" data-original="#000000" style="" class=""/><path d="m169.508 417.701c-26.049 0-47.166 21.117-47.166 47.166s21.117 47.166 47.166 47.166 47.166-21.117 47.166-47.166-21.117-47.166-47.166-47.166zm0 64.332c-9.466 0-17.166-7.7-17.166-17.166s7.7-17.166 17.166-17.166 17.166 7.7 17.166 17.166-7.7 17.166-17.166 17.166z" fill="#000000" data-original="#000000" style="" class=""/><path d="m47.166 295.359c-26.049 0-47.166 21.117-47.166 47.166s21.117 47.166 47.166 47.166 47.166-21.117 47.166-47.166-21.117-47.166-47.166-47.166zm0 64.332c-9.466 0-17.166-7.7-17.166-17.166s7.7-17.166 17.166-17.166 17.166 7.7 17.166 17.166-7.7 17.166-17.166 17.166z" fill="#000000" data-original="#000000" style="" class=""/><path d="m47.166 122.342c-26.049 0-47.166 21.117-47.166 47.166s21.117 47.166 47.166 47.166 47.166-21.117 47.166-47.166-21.117-47.166-47.166-47.166zm0 64.332c-9.466 0-17.166-7.7-17.166-17.166s7.7-17.166 17.166-17.166 17.166 7.7 17.166 17.166-7.7 17.166-17.166 17.166z" fill="#000000" data-original="#000000" style="" class=""/></g></g></svg>
